<svg width="512" xmlns="http://www.w3.org/2000/svg" height="512" fill="none"><defs><clipPath id="a" class="frame-clip frame-clip-def"><rect rx="0" ry="0" width="512" height="512" transform="matrix(1.000000, 0.000000, 0.000000, 1.000000, 0.000000, 0.000000)"/></clipPath></defs><g class="frame-container-wrapper"><g class="frame-container-blur"><g clip-path="url(#a)" class="frame-container-shadows"><g class="fills"><rect rx="0" ry="0" width="512" height="512" transform="matrix(1.000000, 0.000000, 0.000000, 1.000000, 0.000000, 0.000000)" class="frame-background"/></g><g style="fill: rgb(0, 0, 0);" class="frame-children"><defs><filter id="c" x="-.065" y="-.065" width="1.13" height="1.155" filterUnits="objectBoundingBox" color-interpolation-filters="sRGB"><feFlood flood-opacity="0" result="BackgroundImageFix"/><feColorMatrix in="SourceAlpha" values="0 0 0 0 0 0 0 0 0 0 0 0 0 0 0 0 0 0 127 0"/><feOffset dy="3"/><feGaussianBlur stdDeviation="1.5"/><feColorMatrix values="0 0 0 0 0 0 0 0 0 0 0 0 0 0 0 0 0 0 0.5 0"/><feBlend in2="BackgroundImageFix" result="filter_617f7700-8cdc-11ec-a862-39978d7e876f"/><feBlend in="SourceGraphic" in2="filter_617f7700-8cdc-11ec-a862-39978d7e876f" result="shape"/></filter></defs><path d="M175.064,119.120C173.643,120.541,172.564,122.254,171.664,124.131L171.562,124.030L29.279,444.547L29.419,444.686C26.780,449.799,31.195,460.201,40.240,469.259C49.285,478.304,59.687,482.718,64.799,480.080L64.926,480.206L385.443,337.911L385.342,337.797C387.207,336.909,388.919,335.830,390.353,334.384C410.168,314.569,378.035,250.316,318.602,190.871C259.144,131.425,194.891,99.305,175.064,119.120ZL175.064,119.120Z" filter="url(#c)" style="fill: rgb(255, 204, 77); fill-opacity: 1;" class="fills"/><path d="M192.494,176.358L32.857,436.491L29.279,444.547L29.419,444.686C26.780,449.799,31.195,460.201,40.240,469.259C43.183,472.202,46.240,474.434,49.234,476.325L243.237,239.787L192.494,176.358ZL192.494,176.358Z" style="fill: rgb(252, 228, 168); fill-opacity: 1;" class="fills"/><defs><linearGradient id="d" x1="1.38" y1=".94" x2=".01" y2=".9"><stop offset="0" stop-color="#ffcc4d"/><stop offset="1" stop-color="#9c7d31"/></linearGradient><pattern patternUnits="userSpaceOnUse" x="173.579" y="111.5" width="225" height="225" patternTransform="matrix(1.000000, 0.000000, 0.000000, 1.000000, 0.000000, 0.000000)" id="e"><rect width="225" height="225" style="fill: url(&quot;#d&quot;);"/></pattern></defs><path d="M319.503,189.881C378.745,249.149,411.639,312.324,392.941,330.997C374.255,349.696,311.080,316.814,251.799,257.572C192.544,198.304,159.663,135.104,178.349,116.418C197.048,97.732,260.223,130.613,319.503,189.881ZL319.503,189.881Z" fill="url(#e)" class="fills"/><defs><filter id="f" x="-.264" y="-.143" width="1.527" height="1.339" filterUnits="objectBoundingBox" color-interpolation-filters="sRGB"><feFlood flood-opacity="0" result="BackgroundImageFix"/><feColorMatrix in="SourceAlpha" values="0 0 0 0 0 0 0 0 0 0 0 0 0 0 0 0 0 0 127 0"/><feOffset dy="3"/><feGaussianBlur stdDeviation="1.5"/><feColorMatrix values="0 0 0 0 0 0 0 0 0 0 0 0 0 0 0 0 0 0 0.5 0"/><feBlend in2="BackgroundImageFix" result="filter_7ed01572-8cdd-11ec-a862-39978d7e876f"/><feBlend in="SourceGraphic" in2="filter_7ed01572-8cdd-11ec-a862-39978d7e876f" result="shape"/></filter></defs><path d="M263.407,196.769C260.882,198.812,257.584,199.877,254.096,199.497C243.084,198.304,233.824,194.473,227.341,188.422C220.478,182.016,217.091,173.415,218.017,164.801C219.641,149.680,234.813,135.802,260.679,138.593C270.739,139.671,275.230,136.436,275.382,134.889C275.560,133.354,271.868,129.231,261.808,128.140C250.797,126.947,241.537,123.116,235.042,117.065C228.179,110.659,224.779,102.058,225.718,93.444C227.367,78.323,242.526,64.445,268.367,67.248C275.699,68.035,279.568,66.525,281.205,65.548C282.512,64.749,283.032,63.988,283.082,63.544C283.235,62.009,279.594,57.886,269.509,56.795C262.544,56.034,257.495,49.793,258.269,42.816C259.018,35.851,265.246,30.815,272.236,31.576C298.077,34.354,309.951,51.137,308.314,66.272C306.665,81.418,291.506,95.271,265.640,92.493C258.307,91.694,254.476,93.216,252.827,94.193C251.520,94.979,250.988,95.753,250.937,96.184C250.772,97.732,254.438,101.842,264.523,102.933C290.364,105.724,302.238,122.495,300.601,137.629C298.965,152.750,283.805,166.628,257.952,163.825C250.620,163.038,246.763,164.560,245.114,165.525C243.795,166.336,243.287,167.098,243.237,167.529C243.072,169.064,246.738,173.187,256.810,174.278C263.762,175.039,268.824,181.293,268.050,188.257C267.695,191.733,265.931,194.740,263.407,196.769ZZ" filter="url(#f)" style="fill: rgb(170, 141, 216);" class="fills"/><defs><filter id="g" x="-.273" y="-.144" width="1.545" height="1.341" filterUnits="objectBoundingBox" color-interpolation-filters="sRGB"><feFlood flood-opacity="0" result="BackgroundImageFix"/><feColorMatrix in="SourceAlpha" values="0 0 0 0 0 0 0 0 0 0 0 0 0 0 0 0 0 0 127 0"/><feOffset dy="3"/><feGaussianBlur stdDeviation="1.5"/><feColorMatrix values="0 0 0 0 0 0 0 0 0 0 0 0 0 0 0 0 0 0 0.5 0"/><feBlend in2="BackgroundImageFix" result="filter_7ed01579-8cdd-11ec-a862-39978d7e876f"/><feBlend in="SourceGraphic" in2="filter_7ed01579-8cdd-11ec-a862-39978d7e876f" result="shape"/></filter></defs><path d="M416.536,314.087C441.565,307.021,458.830,318.184,462.940,332.836C467.051,347.476,458.145,366.010,433.129,373.050C423.361,375.790,420.431,380.459,420.824,381.943C421.255,383.440,426.215,385.901,435.958,383.148C460.974,376.107,478.239,387.271,482.350,401.910C486.485,416.562,477.554,435.071,452.525,442.124C442.770,444.864,439.827,449.545,440.258,451.029C440.677,452.513,445.624,454.974,455.380,452.234C462.103,450.344,469.131,454.264,471.021,461.000C472.899,467.749,468.979,474.752,462.230,476.654C437.227,483.695,419.949,472.557,415.813,457.892C411.703,443.253,420.621,424.744,445.663,417.691C455.431,414.938,458.361,410.283,457.930,408.786C457.524,407.302,452.576,404.828,442.834,407.568C417.792,414.621,400.539,403.483,396.417,388.806C392.294,374.166,401.212,355.658,426.241,348.592C435.983,345.865,438.914,341.171,438.508,339.699C438.076,338.202,433.142,335.741,423.386,338.482C416.638,340.384,409.648,336.452,407.745,329.716C405.855,322.992,409.787,315.990,416.536,314.087ZZ" filter="url(#g)" style="fill: rgb(119, 178, 85);" class="fills"/><defs><filter id="h" x="-.135" y="-.369" width="1.27" height="1.877" filterUnits="objectBoundingBox" color-interpolation-filters="sRGB"><feFlood flood-opacity="0" result="BackgroundImageFix"/><feColorMatrix in="SourceAlpha" values="0 0 0 0 0 0 0 0 0 0 0 0 0 0 0 0 0 0 127 0"/><feOffset dy="3"/><feGaussianBlur stdDeviation="1.5"/><feColorMatrix values="0 0 0 0 0 0 0 0 0 0 0 0 0 0 0 0 0 0 0.5 0"/><feBlend in2="BackgroundImageFix" result="filter_7ed01577-8cdd-11ec-a862-39978d7e876f"/><feBlend in="SourceGraphic" in2="filter_7ed01577-8cdd-11ec-a862-39978d7e876f" result="shape"/></filter></defs><path d="M319.364,279.874C315.634,279.874,311.955,278.237,309.443,275.116C305.067,269.636,305.967,261.657,311.422,257.280C314.188,255.060,380.153,203.252,473.381,216.585C480.320,217.574,485.140,223.993,484.151,230.932C483.161,237.858,476.793,242.730,469.791,241.690C387.422,229.993,327.876,276.626,327.292,277.095C324.933,278.973,322.142,279.874,319.364,279.874ZZ" filter="url(#h)" style="fill: rgb(170, 141, 216);" class="fills"/><defs><filter id="i" x="-.3" y="-.126" width="1.6" height="1.3" filterUnits="objectBoundingBox" color-interpolation-filters="sRGB"><feFlood flood-opacity="0" result="BackgroundImageFix"/><feColorMatrix in="SourceAlpha" values="0 0 0 0 0 0 0 0 0 0 0 0 0 0 0 0 0 0 127 0"/><feOffset dy="3"/><feGaussianBlur stdDeviation="1.5"/><feColorMatrix values="0 0 0 0 0 0 0 0 0 0 0 0 0 0 0 0 0 0 0.5 0"/><feBlend in2="BackgroundImageFix" result="filter_7ecfee60-8cdd-11ec-a862-39978d7e876f"/><feBlend in="SourceGraphic" in2="filter_7ecfee60-8cdd-11ec-a862-39978d7e876f" result="shape"/></filter></defs><path d="M100.573,227.101C99.368,227.101,98.137,226.923,96.920,226.568C90.209,224.551,86.403,217.485,88.420,210.774C102.793,162.911,115.821,86.531,99.812,66.614C98.023,64.356,95.321,62.136,89.131,62.605C77.231,63.519,78.360,88.624,78.373,88.877C78.906,95.867,73.654,101.956,66.677,102.477C59.585,102.908,53.598,97.757,53.078,90.768C51.771,73.274,57.213,39.581,87.228,37.310C100.624,36.295,111.749,40.951,119.602,50.719C149.679,88.154,119.145,196.681,112.726,218.069C111.077,223.562,106.028,227.101,100.573,227.101ZZ" filter="url(#i)" style="fill: rgb(119, 178, 85);" class="fills"/><defs><filter id="j" x="-.632" y="-.632" width="2.263" height="2.5" filterUnits="objectBoundingBox" color-interpolation-filters="sRGB"><feFlood flood-opacity="0" result="BackgroundImageFix"/><feColorMatrix in="SourceAlpha" values="0 0 0 0 0 0 0 0 0 0 0 0 0 0 0 0 0 0 127 0"/><feOffset dy="3"/><feGaussianBlur stdDeviation="1.5"/><feColorMatrix values="0 0 0 0 0 0 0 0 0 0 0 0 0 0 0 0 0 0 0.5 0"/><feBlend in2="BackgroundImageFix" result="filter_7ed01573-8cdd-11ec-a862-39978d7e876f"/><feBlend in="SourceGraphic" in2="filter_7ed01573-8cdd-11ec-a862-39978d7e876f" result="shape"/></filter></defs><ellipse cx="350.579" cy="144.5" rx="19" ry="19" transform="matrix(1.000000, 0.000000, 0.000000, 1.000000, 0.000000, 0.000000)" filter="url(#j)" style="fill: rgb(92, 145, 59);" class="fills"/><defs><filter id="k" x="-.471" y="-.471" width="1.941" height="2.118" filterUnits="objectBoundingBox" color-interpolation-filters="sRGB"><feFlood flood-opacity="0" result="BackgroundImageFix"/><feColorMatrix in="SourceAlpha" values="0 0 0 0 0 0 0 0 0 0 0 0 0 0 0 0 0 0 127 0"/><feOffset dy="3"/><feGaussianBlur stdDeviation="1.5"/><feColorMatrix values="0 0 0 0 0 0 0 0 0 0 0 0 0 0 0 0 0 0 0.5 0"/><feBlend in2="BackgroundImageFix" result="filter_7ed01570-8cdd-11ec-a862-39978d7e876f"/><feBlend in="SourceGraphic" in2="filter_7ed01570-8cdd-11ec-a862-39978d7e876f" result="shape"/></filter></defs><ellipse cx="53.079" cy="253" rx="25.5" ry="25.5" transform="matrix(1.000000, 0.000000, 0.000000, 1.000000, 0.000000, 0.000000)" filter="url(#k)" style="fill: rgb(146, 102, 204);" class="fills"/><defs><filter id="l" x="-.632" y="-.632" width="2.263" height="2.5" filterUnits="objectBoundingBox" color-interpolation-filters="sRGB"><feFlood flood-opacity="0" result="BackgroundImageFix"/><feColorMatrix in="SourceAlpha" values="0 0 0 0 0 0 0 0 0 0 0 0 0 0 0 0 0 0 127 0"/><feOffset dy="3"/><feGaussianBlur stdDeviation="1.5"/><feColorMatrix values="0 0 0 0 0 0 0 0 0 0 0 0 0 0 0 0 0 0 0.5 0"/><feBlend in2="BackgroundImageFix" result="filter_7ed01578-8cdd-11ec-a862-39978d7e876f"/><feBlend in="SourceGraphic" in2="filter_7ed01578-8cdd-11ec-a862-39978d7e876f" result="shape"/></filter></defs><ellipse cx="439.579" cy="271.5" rx="19" ry="19" transform="matrix(1.000000, 0.000000, 0.000000, 1.000000, 0.000000, 0.000000)" filter="url(#l)" style="fill: rgb(92, 145, 59);" class="fills"/><defs><filter id="m" x="-.632" y="-.632" width="2.263" height="2.5" filterUnits="objectBoundingBox" color-interpolation-filters="sRGB"><feFlood flood-opacity="0" result="BackgroundImageFix"/><feColorMatrix in="SourceAlpha" values="0 0 0 0 0 0 0 0 0 0 0 0 0 0 0 0 0 0 127 0"/><feOffset dy="3"/><feGaussianBlur stdDeviation="1.5"/><feColorMatrix values="0 0 0 0 0 0 0 0 0 0 0 0 0 0 0 0 0 0 0.5 0"/><feBlend in2="BackgroundImageFix" result="filter_7ed0157a-8cdd-11ec-a862-39978d7e876f"/><feBlend in="SourceGraphic" in2="filter_7ed0157a-8cdd-11ec-a862-39978d7e876f" result="shape"/></filter></defs><ellipse cx="325.579" cy="423.5" rx="19" ry="19" transform="matrix(1.000000, 0.000000, 0.000000, 1.000000, 0.000000, 0.000000)" filter="url(#m)" style="fill: rgb(92, 145, 59);" class="fills"/><defs><filter id="n" x="-.471" y="-.471" width="1.941" height="2.118" filterUnits="objectBoundingBox" color-interpolation-filters="sRGB"><feFlood flood-opacity="0" result="BackgroundImageFix"/><feColorMatrix in="SourceAlpha" values="0 0 0 0 0 0 0 0 0 0 0 0 0 0 0 0 0 0 127 0"/><feOffset dy="3"/><feGaussianBlur stdDeviation="1.5"/><feColorMatrix values="0 0 0 0 0 0 0 0 0 0 0 0 0 0 0 0 0 0 0.5 0"/><feBlend in2="BackgroundImageFix" result="filter_7ed01574-8cdd-11ec-a862-39978d7e876f"/><feBlend in="SourceGraphic" in2="filter_7ed01574-8cdd-11ec-a862-39978d7e876f" result="shape"/></filter></defs><ellipse cx="383.079" cy="75" rx="25.5" ry="25.5" transform="matrix(1.000000, 0.000000, 0.000000, 1.000000, 0.000000, 0.000000)" filter="url(#n)" style="fill: rgb(221, 46, 68); fill-opacity: 1;" class="fills"/><defs><filter id="o" x="-.632" y="-.632" width="2.263" height="2.5" filterUnits="objectBoundingBox" color-interpolation-filters="sRGB"><feFlood flood-opacity="0" result="BackgroundImageFix"/><feColorMatrix in="SourceAlpha" values="0 0 0 0 0 0 0 0 0 0 0 0 0 0 0 0 0 0 127 0"/><feOffset dy="3"/><feGaussianBlur stdDeviation="1.5"/><feColorMatrix values="0 0 0 0 0 0 0 0 0 0 0 0 0 0 0 0 0 0 0.5 0"/><feBlend in2="BackgroundImageFix" result="filter_7ed01575-8cdd-11ec-a862-39978d7e876f"/><feBlend in="SourceGraphic" in2="filter_7ed01575-8cdd-11ec-a862-39978d7e876f" result="shape"/></filter></defs><ellipse cx="439.579" cy="131.5" rx="19" ry="19" transform="matrix(1.000000, 0.000000, 0.000000, 1.000000, 0.000000, 0.000000)" filter="url(#o)" style="fill: rgb(221, 46, 68); fill-opacity: 1;" class="fills"/><defs><filter id="p" x="-.632" y="-.632" width="2.263" height="2.5" filterUnits="objectBoundingBox" color-interpolation-filters="sRGB"><feFlood flood-opacity="0" result="BackgroundImageFix"/><feColorMatrix in="SourceAlpha" values="0 0 0 0 0 0 0 0 0 0 0 0 0 0 0 0 0 0 127 0"/><feOffset dy="3"/><feGaussianBlur stdDeviation="1.5"/><feColorMatrix values="0 0 0 0 0 0 0 0 0 0 0 0 0 0 0 0 0 0 0.5 0"/><feBlend in2="BackgroundImageFix" result="filter_7ed01576-8cdd-11ec-a862-39978d7e876f"/><feBlend in="SourceGraphic" in2="filter_7ed01576-8cdd-11ec-a862-39978d7e876f" result="shape"/></filter></defs><ellipse cx="402.079" cy="183" rx="19" ry="19" transform="matrix(1.000000, 0.000000, 0.000000, 1.000000, 0.000000, 0.000000)" filter="url(#p)" style="fill: rgb(221, 46, 68); fill-opacity: 1;" class="fills"/><defs><filter id="q" x="-.632" y="-.632" width="2.263" height="2.5" filterUnits="objectBoundingBox" color-interpolation-filters="sRGB"><feFlood flood-opacity="0" result="BackgroundImageFix"/><feColorMatrix in="SourceAlpha" values="0 0 0 0 0 0 0 0 0 0 0 0 0 0 0 0 0 0 127 0"/><feOffset dy="3"/><feGaussianBlur stdDeviation="1.5"/><feColorMatrix values="0 0 0 0 0 0 0 0 0 0 0 0 0 0 0 0 0 0 0.5 0"/><feBlend in2="BackgroundImageFix" result="filter_7ed01571-8cdd-11ec-a862-39978d7e876f"/><feBlend in="SourceGraphic" in2="filter_7ed01571-8cdd-11ec-a862-39978d7e876f" result="shape"/></filter></defs><ellipse cx="122.579" cy="322.5" rx="19" ry="19" transform="matrix(1.000000, 0.000000, 0.000000, 1.000000, 0.000000, 0.000000)" filter="url(#q)" style="fill: rgb(221, 46, 68); fill-opacity: 1;" class="fills"/></g></g><g class="strokes"><g class="stroke-shape"><rect width="512" height="512" class="frame-background" transform="matrix(1.000000, 0.000000, 0.000000, 1.000000, 0.000000, 0.000000)" style="fill: none;" ry="0" rx="0"/></g></g></g></g></svg>